<svg width="115" height="57" viewBox="0 0 115 57" fill="none" xmlns="http://www.w3.org/2000/svg">
<path d="M33.4519 33.8894C33.2517 33.8894 33.0884 33.842 32.962 33.7472C32.8356 33.6524 32.7355 33.5102 32.6617 33.3205L28.316 23.3808C28.2423 23.2017 28.2212 23.0542 28.2528 22.9383C28.2844 22.8119 28.3529 22.7118 28.4583 22.6381C28.5742 22.5643 28.7058 22.5275 28.8533 22.5275C29.0535 22.5275 29.201 22.5749 29.2958 22.6697C29.4012 22.754 29.4854 22.8804 29.5486 23.0489L33.7205 32.7358H33.2148L37.3709 23.0331C37.4446 22.8751 37.5342 22.754 37.6395 22.6697C37.7449 22.5749 37.8923 22.5275 38.082 22.5275C38.2295 22.5275 38.3506 22.5643 38.4454 22.6381C38.5508 22.7118 38.614 22.8119 38.6351 22.9383C38.6667 23.0647 38.6456 23.2122 38.5719 23.3808L34.2262 33.3205C34.1524 33.5102 34.0523 33.6524 33.9259 33.7472C33.81 33.842 33.652 33.8894 33.4519 33.8894ZM41.0985 33.8578C40.8878 33.8578 40.7298 33.7999 40.6244 33.684C40.5191 33.5576 40.4664 33.3837 40.4664 33.1625V26.6993C40.4664 26.4781 40.5191 26.3095 40.6244 26.1936C40.7298 26.0777 40.8878 26.0198 41.0985 26.0198C41.2987 26.0198 41.4567 26.0777 41.5726 26.1936C41.6885 26.3095 41.7464 26.4781 41.7464 26.6993V33.1625C41.7464 33.3837 41.6885 33.5576 41.5726 33.684C41.4672 33.7999 41.3092 33.8578 41.0985 33.8578ZM41.0985 24.2499C40.8351 24.2499 40.6297 24.1814 40.4822 24.0445C40.3347 23.897 40.261 23.7021 40.261 23.4598C40.261 23.207 40.3347 23.0173 40.4822 22.8909C40.6297 22.754 40.8351 22.6855 41.0985 22.6855C41.3724 22.6855 41.5779 22.754 41.7148 22.8909C41.8623 23.0173 41.936 23.207 41.936 23.4598C41.936 23.7021 41.8623 23.897 41.7148 24.0445C41.5779 24.1814 41.3724 24.2499 41.0985 24.2499ZM47.6 33.921C46.7888 33.921 46.0882 33.763 45.4983 33.447C44.9188 33.1204 44.4658 32.6621 44.1393 32.0721C43.8232 31.4822 43.6652 30.7763 43.6652 29.9546C43.6652 29.154 43.8232 28.4586 44.1393 27.8687C44.4553 27.2682 44.8872 26.7994 45.4351 26.4623C45.9934 26.1251 46.636 25.9566 47.363 25.9566C47.8792 25.9566 48.3427 26.0461 48.7536 26.2252C49.1644 26.3938 49.5121 26.6414 49.7965 26.9679C50.0915 27.2945 50.3128 27.6896 50.4602 28.1531C50.6183 28.6167 50.6973 29.1382 50.6973 29.7176C50.6973 29.8861 50.6499 30.0126 50.5551 30.0968C50.4602 30.1706 50.3233 30.2075 50.1442 30.2075H44.6449V29.3699H49.8439L49.5911 29.5754C49.5911 29.0065 49.5068 28.5271 49.3383 28.1373C49.1697 27.737 48.9221 27.4315 48.5956 27.2208C48.2795 27.0101 47.8792 26.9047 47.3946 26.9047C46.8573 26.9047 46.399 27.0312 46.0198 27.284C45.651 27.5263 45.3719 27.8687 45.1822 28.3112C44.9926 28.7431 44.8978 29.2488 44.8978 29.8282V29.923C44.8978 30.8922 45.1295 31.6297 45.5931 32.1354C46.0672 32.641 46.7361 32.8939 47.6 32.8939C47.9582 32.8939 48.3111 32.8465 48.6588 32.7516C49.017 32.6568 49.3646 32.4988 49.7017 32.2776C49.8492 32.1828 49.9809 32.1406 50.0968 32.1512C50.2232 32.1512 50.3233 32.188 50.397 32.2618C50.4708 32.325 50.5182 32.4093 50.5393 32.5146C50.5709 32.6094 50.5603 32.7148 50.5077 32.8307C50.4655 32.9465 50.376 33.0466 50.239 33.1309C49.8914 33.3837 49.4805 33.5786 49.0064 33.7156C48.5323 33.8526 48.0635 33.921 47.6 33.921ZM55.112 33.8894C54.9329 33.8894 54.7749 33.842 54.6379 33.7472C54.5009 33.6524 54.3903 33.4996 54.306 33.2889L51.9515 26.8889C51.8883 26.7098 51.8672 26.5518 51.8883 26.4149C51.9199 26.2779 51.9884 26.1726 52.0937 26.0988C52.1991 26.0251 52.3307 25.9882 52.4888 25.9882C52.6468 25.9882 52.7732 26.0251 52.868 26.0988C52.9734 26.1726 53.0577 26.3095 53.1209 26.5097L55.3332 32.8307H54.9539L57.2295 26.5097C57.3033 26.32 57.3928 26.1884 57.4981 26.1146C57.614 26.0303 57.7615 25.9882 57.9406 25.9882C58.1092 25.9882 58.2514 26.0303 58.3673 26.1146C58.4832 26.1989 58.5727 26.3306 58.6359 26.5097L60.8641 32.8307H60.5006L62.7446 26.4781C62.8183 26.2884 62.9079 26.162 63.0132 26.0988C63.1186 26.0251 63.245 25.9882 63.3925 25.9882C63.561 25.9882 63.6874 26.0303 63.7717 26.1146C63.8665 26.1989 63.9192 26.3095 63.9298 26.4465C63.9403 26.5834 63.9139 26.7309 63.8507 26.8889L61.4962 33.2889C61.4224 33.4891 61.3118 33.6419 61.1643 33.7472C61.0274 33.842 60.8693 33.8894 60.6902 33.8894C60.5112 33.8894 60.3531 33.842 60.2162 33.7472C60.0792 33.6419 59.9739 33.4891 59.9001 33.2889L57.5614 26.8731H58.2409L55.9179 33.2889C55.8442 33.4891 55.7388 33.6419 55.6019 33.7472C55.4649 33.842 55.3016 33.8894 55.112 33.8894ZM72.236 33.921C71.7093 33.921 71.2352 33.8209 70.8138 33.6208C70.403 33.4101 70.0764 33.1256 69.8341 32.7675C69.5918 32.4093 69.4706 32.0089 69.4706 31.5665C69.4706 30.9976 69.6128 30.5498 69.8973 30.2233C70.1923 29.8967 70.6716 29.6649 71.3353 29.5279C72.0095 29.391 72.9261 29.3225 74.0849 29.3225H74.796V30.16H74.1007C73.2474 30.16 72.5732 30.2022 72.078 30.2865C71.5934 30.3602 71.251 30.4919 71.0509 30.6815C70.8612 30.8712 70.7664 31.1398 70.7664 31.4875C70.7664 31.9194 70.9139 32.2723 71.2089 32.5462C71.5144 32.8201 71.9253 32.9571 72.4415 32.9571C72.8629 32.9571 73.2316 32.857 73.5477 32.6568C73.8742 32.4567 74.1271 32.1828 74.3062 31.8351C74.4958 31.4875 74.5906 31.0871 74.5906 30.6341V28.8326C74.5906 28.1795 74.4589 27.7107 74.1956 27.4262C73.9322 27.1312 73.5002 26.9837 72.8998 26.9837C72.531 26.9837 72.1623 27.0312 71.7936 27.126C71.4249 27.2208 71.0351 27.3735 70.6242 27.5842C70.4767 27.658 70.3503 27.6843 70.2449 27.6633C70.1396 27.6316 70.0553 27.5737 69.9921 27.4894C69.9289 27.4051 69.892 27.3103 69.8815 27.205C69.8709 27.0891 69.892 26.9785 69.9447 26.8731C70.0079 26.7678 70.1027 26.6835 70.2291 26.6203C70.6927 26.3885 71.1509 26.22 71.6039 26.1146C72.057 26.0093 72.4889 25.9566 72.8998 25.9566C73.5635 25.9566 74.1113 26.0672 74.5432 26.2884C74.9751 26.4991 75.2965 26.8257 75.5072 27.2682C75.7179 27.7001 75.8232 28.2585 75.8232 28.9433V33.2257C75.8232 33.4364 75.7705 33.5997 75.6652 33.7156C75.5704 33.8315 75.4281 33.8894 75.2385 33.8894C75.0384 33.8894 74.8856 33.8315 74.7802 33.7156C74.6749 33.5997 74.6222 33.4364 74.6222 33.2257V31.9931H74.7644C74.6802 32.3935 74.5169 32.7358 74.2746 33.0203C74.0428 33.3047 73.7531 33.526 73.4054 33.684C73.0578 33.842 72.668 33.921 72.236 33.921ZM80.5367 33.921C79.7781 33.921 79.1987 33.6893 78.7984 33.2257C78.3981 32.7622 78.1979 32.0985 78.1979 31.2346V23.1754C78.1979 22.9647 78.2506 22.8066 78.3559 22.7013C78.4613 22.5854 78.6193 22.5275 78.83 22.5275C79.0302 22.5275 79.1882 22.5854 79.3041 22.7013C79.42 22.8066 79.4779 22.9647 79.4779 23.1754V31.1398C79.4779 31.7087 79.5885 32.1354 79.8097 32.4198C80.0415 32.6937 80.3786 32.8307 80.8211 32.8307C80.9159 32.8307 81.0002 32.8254 81.0739 32.8149C81.1477 32.8043 81.2214 32.7991 81.2952 32.7991C81.4111 32.7885 81.4901 32.8149 81.5322 32.8781C81.5849 32.9413 81.6112 33.0677 81.6112 33.2573C81.6112 33.447 81.5691 33.5892 81.4848 33.684C81.4005 33.7788 81.2636 33.842 81.0739 33.8736C80.9897 33.8842 80.9001 33.8947 80.8053 33.9052C80.7105 33.9158 80.6209 33.921 80.5367 33.921ZM85.2126 33.921C84.4541 33.921 83.8746 33.6893 83.4743 33.2257C83.074 32.7622 82.8738 32.0985 82.8738 31.2346V23.1754C82.8738 22.9647 82.9265 22.8066 83.0318 22.7013C83.1372 22.5854 83.2952 22.5275 83.5059 22.5275C83.7061 22.5275 83.8641 22.5854 83.98 22.7013C84.0959 22.8066 84.1538 22.9647 84.1538 23.1754V31.1398C84.1538 31.7087 84.2644 32.1354 84.4857 32.4198C84.7174 32.6937 85.0546 32.8307 85.497 32.8307C85.5918 32.8307 85.6761 32.8254 85.7499 32.8149C85.8236 32.8043 85.8974 32.7991 85.9711 32.7991C86.087 32.7885 86.166 32.8149 86.2081 32.8781C86.2608 32.9413 86.2872 33.0677 86.2872 33.2573C86.2872 33.447 86.245 33.5892 86.1607 33.684C86.0765 33.7788 85.9395 33.842 85.7499 33.8736C85.6656 33.8842 85.576 33.8947 85.4812 33.9052C85.3864 33.9158 85.2969 33.921 85.2126 33.921Z" fill="#FF007A"/>
<rect x="0.493827" y="1.27264" width="114.012" height="55.0123" rx="27.5062" stroke="#FF007A" stroke-width="0.987654"/>
</svg>
