<svg xmlns="http://www.w3.org/2000/svg" width="1600" height="796" fill="none"><path fill="url(#a)" d="M0 0h1600v659H0z"/><rect width="183.103" height="620.785" fill="url(#b)" fill-opacity=".32" rx="91.551" transform="scale(-1 1) rotate(70.386 -1001.932 -868.258)"/><path fill="url(#c)" fill-rule="evenodd" d="M1600 795.721V659H0v136.721c162.983-56.313 460.274-93.997 800.001-93.997 339.729 0 637.019 37.684 799.999 93.997Z" clip-rule="evenodd"/><rect width="183.103" height="620.785" x="412" y="114.406" fill="url(#d)" fill-opacity=".32" rx="91.551" transform="rotate(-38.669 412 114.406)"/><rect width="183.103" height="620.785" x="-7" y="-205.594" fill="#7373FF" fill-opacity=".32" rx="91.551" transform="rotate(-38.669 -7 -205.594)"/><rect width="183.103" height="620.785" x="-323" y="-10.594" fill="#7373FF" fill-opacity=".32" rx="91.551" transform="rotate(-38.669 -323 -10.594)"/><rect width="183.103" height="620.785" x="-395" y="308.406" fill="#7373FF" fill-opacity=".32" rx="91.551" transform="rotate(-38.669 -395 308.406)"/><rect width="183.103" height="620.785" fill="url(#e)" fill-opacity=".32" rx="91.551" transform="scale(1 -1) rotate(24.438 1515.38 3036.095)"/><defs><linearGradient id="a" x1="1032" x2="1537.66" y1="558.796" y2="-51.639" gradientUnits="userSpaceOnUse"><stop stop-color="#6B50FF"/><stop offset="1" stop-color="#A145FF"/></linearGradient><linearGradient id="b" x1="91.551" x2="123.384" y1="0" y2="580.434" gradientUnits="userSpaceOnUse"><stop stop-color="#7373FF"/><stop offset="1" stop-color="#7373FF" stop-opacity="0"/></linearGradient><linearGradient id="c" x1="1600" x2="1252.5" y1="608.5" y2="585.5" gradientUnits="userSpaceOnUse"><stop stop-color="#7E55FF"/><stop offset="1" stop-color="#6B50FF"/></linearGradient><linearGradient id="d" x1="503.551" x2="535.384" y1="114.406" y2="694.84" gradientUnits="userSpaceOnUse"><stop offset=".236" stop-color="#7373FF"/><stop offset="1" stop-color="#7373FF" stop-opacity="0"/></linearGradient><linearGradient id="e" x1="91.551" x2="123.384" y1="0" y2="580.434" gradientUnits="userSpaceOnUse"><stop offset=".236" stop-color="#7373FF"/><stop offset="1" stop-color="#7373FF" stop-opacity="0"/></linearGradient></defs></svg>