<svg xmlns="http://www.w3.org/2000/svg" width="24" height="188" fill="none"><path fill="#3D3A41" d="M20.405 7.414 10.064 17.756a.488.488 0 0 1-.693 0l-5.258-5.259a.487.487 0 0 1 0-.693l.682-.683a.488.488 0 0 1 .693 0l4.225 4.225 9.317-9.317a.498.498 0 0 1 .692 0l.683.692a.488.488 0 0 1 0 .693ZM20.405 48.414 10.064 58.756a.488.488 0 0 1-.693 0l-5.258-5.259a.487.487 0 0 1 0-.693l.682-.683a.488.488 0 0 1 .693 0l4.225 4.225 9.317-9.317a.497.497 0 0 1 .692 0l.683.692a.488.488 0 0 1 0 .693ZM20.405 89.414 10.064 99.755a.488.488 0 0 1-.693 0l-5.258-5.258a.488.488 0 0 1 0-.693l.682-.683a.488.488 0 0 1 .693 0l4.225 4.225 9.317-9.318a.498.498 0 0 1 .692 0l.683.693a.488.488 0 0 1 0 .693ZM20.405 130.414l-10.341 10.342a.49.49 0 0 1-.693 0l-5.258-5.259a.486.486 0 0 1 0-.693l.682-.683a.489.489 0 0 1 .693 0l4.225 4.225 9.317-9.317a.498.498 0 0 1 .692 0l.683.692a.49.49 0 0 1 0 .693ZM20.405 171.414l-10.341 10.342a.49.49 0 0 1-.693 0l-5.258-5.259a.486.486 0 0 1 0-.693l.682-.683a.489.489 0 0 1 .693 0l4.225 4.225 9.317-9.317a.498.498 0 0 1 .692 0l.683.692a.49.49 0 0 1 0 .693Z"/></svg>