<svg xmlns="http://www.w3.org/2000/svg" width="661" height="801" fill="none"><path fill="url(#a)" d="M118 0h375v659H118z"/><path fill="url(#b)" fill-rule="evenodd" d="M118 801c38.199-58.488 107.877-97.627 187.5-97.627s149.301 39.139 187.5 97.626V659H118v142Z" clip-rule="evenodd"/><rect width="89.01" height="301.775" x="402.298" y="246.172" fill="url(#c)" fill-opacity=".32" rx="44.505" transform="rotate(-38.669 402.298 246.172)"/><rect width="89.01" height="301.775" x="128.614" y="90.615" fill="#7373FF" fill-opacity=".32" rx="44.505" transform="rotate(-38.669 128.614 90.615)"/><rect width="89.01" height="301.775" x="242" y="428.615" fill="#7373FF" fill-opacity=".32" rx="44.505" transform="rotate(-38.669 242 428.615)"/><rect width="89.01" height="301.775" y="390.479" fill="#7373FF" fill-opacity=".32" rx="44.505" transform="rotate(-38.669 0 390.479)"/><defs><linearGradient id="a" x1="359.875" x2="629.519" y1="558.796" y2="482.503" gradientUnits="userSpaceOnUse"><stop stop-color="#6B50FF"/><stop offset="1" stop-color="#A145FF"/></linearGradient><linearGradient id="b" x1="493" x2="411.216" y1="606.55" y2="605.328" gradientUnits="userSpaceOnUse"><stop stop-color="#7E55FF"/><stop offset="1" stop-color="#6B50FF"/></linearGradient><linearGradient id="c" x1="446.803" x2="462.277" y1="246.172" y2="528.332" gradientUnits="userSpaceOnUse"><stop offset=".236" stop-color="#7373FF"/><stop offset="1" stop-color="#7373FF" stop-opacity="0"/></linearGradient></defs></svg>